<mxGraphModel dx="0" dy="0" grid="1" gridSize="10" guides="1" tooltips="1" connect="1" arrows="1" fold="1" page="0" pageScale="1" background="none" math="0" shadow="0">
  <root>
    <mxCell id="0" />
    <mxCell id="1" parent="0" />
    <mxCell id="node13" parent="1" vertex="1" value="ConnectionSettings" style="label;fontStyle=0;strokeColor=default;fillColor=none;align=left;verticalAlign=middle;overflow=hidden;spacingLeft=28;spacingRight=4;rotatable=0;points=[[0,0.5],[1,0.5]];portConstraint=eastwest;imageWidth=16;imageHeight=16;image=data:image/png,iVBORw0KGgoAAAANSUhEUgAAACAAAAAgCAYAAABzenr0AAACPklEQVR4Xu2WuUsDQRTG03hbe7USi9jZaGNjtNBokyjZFQUrG/GsbATvUtTOSm2DuyERBMH7qtIE2VWwEDz+Aa2s1vf2kNmXZNfsERD8YIqdnZnfN2/fvNlA4F+/VGZnvEwWuQlZ4Bay4mgdfe+rXhNDVQA/gabo7eU+GW+m43wRC7/bjymHW/2lM0Hhgz2tSrgjqKQ2S2AiH7yzrVltOSZSfD2d70pWcNZEelszIYn8El3DsX4DxxbtCik3e1EtCgI/Q9dxJEdwkbt63h2rpGsVLSkxVO4Enj0eraFrscJ1JYGflARu0TJXcJDX8MzhQDXkx5k+3vrUYCLhoPRmRAm3B+3gRbVb2JSRsA8i9wpRaaD8gCyMNMKAdxyU3OgzmXADx4jGurX6kd6KaP1JbpnyVT2I8RZqwi7sBsh4fjrqrYDnc+zDnSM8zyZm2TVMYk1gsbGCo6gBSeSmbODXtqeGNWEFR+UaMOcShcP3r2XnF9RjimuCo7MOZuasHOcYgASD5zfDhCN4MaIG1L6D4aBhwlc4Shb5D4RgxEz9cKrgyK3ZRdC1AHKKBgA0T9+h1FMBdwX8Sa3kPf9uBQtH9DB/oQkWgokLEbo0PgUWoYKV0I1wd8z3zmm3kIg/RciP/wcURkKv+58UHg2HzP8PcDHR+Z5Jq4Ra2A24Woy6Q8qdfiSxWNF5nklNOAs4tHM0Sed5JrxoEPRTCc3wC7yi6RxPRSshCy9Uzj1XnkpYOrghLRL8qpyMT/v6zf+8vgFG80iK7km8qAAAAABJRU5ErkJggg==">
      <mxGeometry x="205" y="229" width="150" height="25" as="geometry" />
    </mxCell>
    <mxCell id="node11" parent="1" vertex="1" value="ConnectionSettingsValidator" style="label;fontStyle=0;strokeColor=default;fillColor=none;align=left;verticalAlign=middle;overflow=hidden;spacingLeft=28;spacingRight=4;rotatable=0;points=[[0,0.5],[1,0.5]];portConstraint=eastwest;imageWidth=16;imageHeight=16;image=data:image/png,iVBORw0KGgoAAAANSUhEUgAAACAAAAAgCAYAAABzenr0AAACPklEQVR4Xu2WuUsDQRTG03hbe7USi9jZaGNjtNBokyjZFQUrG/GsbATvUtTOSm2DuyERBMH7qtIE2VWwEDz+Aa2s1vf2kNmXZNfsERD8YIqdnZnfN2/fvNlA4F+/VGZnvEwWuQlZ4Bay4mgdfe+rXhNDVQA/gabo7eU+GW+m43wRC7/bjymHW/2lM0Hhgz2tSrgjqKQ2S2AiH7yzrVltOSZSfD2d70pWcNZEelszIYn8El3DsX4DxxbtCik3e1EtCgI/Q9dxJEdwkbt63h2rpGsVLSkxVO4Enj0eraFrscJ1JYGflARu0TJXcJDX8MzhQDXkx5k+3vrUYCLhoPRmRAm3B+3gRbVb2JSRsA8i9wpRaaD8gCyMNMKAdxyU3OgzmXADx4jGurX6kd6KaP1JbpnyVT2I8RZqwi7sBsh4fjrqrYDnc+zDnSM8zyZm2TVMYk1gsbGCo6gBSeSmbODXtqeGNWEFR+UaMOcShcP3r2XnF9RjimuCo7MOZuasHOcYgASD5zfDhCN4MaIG1L6D4aBhwlc4Shb5D4RgxEz9cKrgyK3ZRdC1AHKKBgA0T9+h1FMBdwX8Sa3kPf9uBQtH9DB/oQkWgokLEbo0PgUWoYKV0I1wd8z3zmm3kIg/RciP/wcURkKv+58UHg2HzP8PcDHR+Z5Jq4Ra2A24Woy6Q8qdfiSxWNF5nklNOAs4tHM0Sed5JrxoEPRTCc3wC7yi6RxPRSshCy9Uzj1XnkpYOrghLRL8qpyMT/v6zf+8vgFG80iK7km8qAAAAABJRU5ErkJggg==">
      <mxGeometry x="218" y="369" width="205" height="25" as="geometry" />
    </mxCell>
    <mxCell id="node12" parent="1" vertex="1" value="ExceptionArgument" style="label;fontStyle=0;strokeColor=default;fillColor=none;align=left;verticalAlign=middle;overflow=hidden;spacingLeft=28;spacingRight=4;rotatable=0;points=[[0,0.5],[1,0.5]];portConstraint=eastwest;imageWidth=16;imageHeight=16;image=data:image/png,iVBORw0KGgoAAAANSUhEUgAAACAAAAAgCAYAAABzenr0AAABIklEQVR4XmNgGAWjgERwZmYa69W1EW3X1kU8A+L/ROJnID0gvejmkQyurotsx2IBURikF908kgHQoKcgwxL99P/bGikThUFqoY54im4eyQDmG3RLCGGYPnTzSAboDtg0yQcjqGEYJEd1B1xdF3EE2WC6OwAbcNDW5rExUXGwNVLZjB70dHEAMrA1VqlEt5wkB1xdFcoGzWqk5XOgHpBekBkZIUaHLqwIIy8KgIo6sFhALO4AmdFT7JBBiQPA+TzBn/h8DlILtQCcz62t1XnR1ZDiALBCdAMIYXQLkOVIKojQHUBuNsOmj6iimFoOAJUXSGqJr4zQHUAsRncA2WDQOYDcKCAbDDoHEIup6QCKCyKKwDUqFMUUAWpURqNgFIwCUgAA7gdgpJ5H74cAAAAASUVORK5CYII=">
      <mxGeometry x="145" y="949" width="150" height="25" as="geometry" />
    </mxCell>
    <mxCell id="node4" parent="1" vertex="1" value="ExceptionResource" style="label;fontStyle=0;strokeColor=default;fillColor=none;align=left;verticalAlign=middle;overflow=hidden;spacingLeft=28;spacingRight=4;rotatable=0;points=[[0,0.5],[1,0.5]];portConstraint=eastwest;imageWidth=16;imageHeight=16;image=data:image/png,iVBORw0KGgoAAAANSUhEUgAAACAAAAAgCAYAAABzenr0AAABIklEQVR4XmNgGAWjgERwZmYa69W1EW3X1kU8A+L/ROJnID0gvejmkQyurotsx2IBURikF908kgHQoKcgwxL99P/bGikThUFqoY54im4eyQDmG3RLCGGYPnTzSAboDtg0yQcjqGEYJEd1B1xdF3EE2WC6OwAbcNDW5rExUXGwNVLZjB70dHEAMrA1VqlEt5wkB1xdFcoGzWqk5XOgHpBekBkZIUaHLqwIIy8KgIo6sFhALO4AmdFT7JBBiQPA+TzBn/h8DlILtQCcz62t1XnR1ZDiALBCdAMIYXQLkOVIKojQHUBuNsOmj6iimFoOAJUXSGqJr4zQHUAsRncA2WDQOYDcKCAbDDoHEIup6QCKCyKKwDUqFMUUAWpURqNgFIwCUgAA7gdgpJ5H74cAAAAASUVORK5CYII=">
      <mxGeometry x="347" y="949" width="147" height="25" as="geometry" />
    </mxCell>
    <mxCell id="node17" parent="1" vertex="1" value="FirstRunWindow" style="label;fontStyle=0;strokeColor=default;fillColor=none;align=left;verticalAlign=middle;overflow=hidden;spacingLeft=28;spacingRight=4;rotatable=0;points=[[0,0.5],[1,0.5]];portConstraint=eastwest;imageWidth=16;imageHeight=16;image=data:image/png,iVBORw0KGgoAAAANSUhEUgAAACAAAAAgCAYAAABzenr0AAACPklEQVR4Xu2WuUsDQRTG03hbe7USi9jZaGNjtNBokyjZFQUrG/GsbATvUtTOSm2DuyERBMH7qtIE2VWwEDz+Aa2s1vf2kNmXZNfsERD8YIqdnZnfN2/fvNlA4F+/VGZnvEwWuQlZ4Bay4mgdfe+rXhNDVQA/gabo7eU+GW+m43wRC7/bjymHW/2lM0Hhgz2tSrgjqKQ2S2AiH7yzrVltOSZSfD2d70pWcNZEelszIYn8El3DsX4DxxbtCik3e1EtCgI/Q9dxJEdwkbt63h2rpGsVLSkxVO4Enj0eraFrscJ1JYGflARu0TJXcJDX8MzhQDXkx5k+3vrUYCLhoPRmRAm3B+3gRbVb2JSRsA8i9wpRaaD8gCyMNMKAdxyU3OgzmXADx4jGurX6kd6KaP1JbpnyVT2I8RZqwi7sBsh4fjrqrYDnc+zDnSM8zyZm2TVMYk1gsbGCo6gBSeSmbODXtqeGNWEFR+UaMOcShcP3r2XnF9RjimuCo7MOZuasHOcYgASD5zfDhCN4MaIG1L6D4aBhwlc4Shb5D4RgxEz9cKrgyK3ZRdC1AHKKBgA0T9+h1FMBdwX8Sa3kPf9uBQtH9DB/oQkWgokLEbo0PgUWoYKV0I1wd8z3zmm3kIg/RciP/wcURkKv+58UHg2HzP8PcDHR+Z5Jq4Ra2A24Woy6Q8qdfiSxWNF5nklNOAs4tHM0Sed5JrxoEPRTCc3wC7yi6RxPRSshCy9Uzj1XnkpYOrghLRL8qpyMT/v6zf+8vgFG80iK7km8qAAAAABJRU5ErkJggg==">
      <mxGeometry x="296" y="509" width="128" height="25" as="geometry" />
    </mxCell>
    <mxCell id="node6" parent="1" vertex="1" value="Form1" style="label;fontStyle=0;strokeColor=default;fillColor=none;align=left;verticalAlign=middle;overflow=hidden;spacingLeft=28;spacingRight=4;rotatable=0;points=[[0,0.5],[1,0.5]];portConstraint=eastwest;imageWidth=16;imageHeight=16;image=data:image/png,iVBORw0KGgoAAAANSUhEUgAAACAAAAAgCAYAAABzenr0AAACPklEQVR4Xu2WuUsDQRTG03hbe7USi9jZaGNjtNBokyjZFQUrG/GsbATvUtTOSm2DuyERBMH7qtIE2VWwEDz+Aa2s1vf2kNmXZNfsERD8YIqdnZnfN2/fvNlA4F+/VGZnvEwWuQlZ4Bay4mgdfe+rXhNDVQA/gabo7eU+GW+m43wRC7/bjymHW/2lM0Hhgz2tSrgjqKQ2S2AiH7yzrVltOSZSfD2d70pWcNZEelszIYn8El3DsX4DxxbtCik3e1EtCgI/Q9dxJEdwkbt63h2rpGsVLSkxVO4Enj0eraFrscJ1JYGflARu0TJXcJDX8MzhQDXkx5k+3vrUYCLhoPRmRAm3B+3gRbVb2JSRsA8i9wpRaaD8gCyMNMKAdxyU3OgzmXADx4jGurX6kd6KaP1JbpnyVT2I8RZqwi7sBsh4fjrqrYDnc+zDnSM8zyZm2TVMYk1gsbGCo6gBSeSmbODXtqeGNWEFR+UaMOcShcP3r2XnF9RjimuCo7MOZuasHOcYgASD5zfDhCN4MaIG1L6D4aBhwlc4Shb5D4RgxEz9cKrgyK3ZRdC1AHKKBgA0T9+h1FMBdwX8Sa3kPf9uBQtH9DB/oQkWgokLEbo0PgUWoYKV0I1wd8z3zmm3kIg/RciP/wcURkKv+58UHg2HzP8PcDHR+Z5Jq4Ra2A24Woy6Q8qdfiSxWNF5nklNOAs4tHM0Sed5JrxoEPRTCc3wC7yi6RxPRSshCy9Uzj1XnkpYOrghLRL8qpyMT/v6zf+8vgFG80iK7km8qAAAAABJRU5ErkJggg==">
      <mxGeometry x="628" y="769" width="64" height="25" as="geometry" />
    </mxCell>
    <mxCell id="node5" parent="1" vertex="1" value="Logger" style="label;fontStyle=0;strokeColor=default;fillColor=none;align=left;verticalAlign=middle;overflow=hidden;spacingLeft=28;spacingRight=4;rotatable=0;points=[[0,0.5],[1,0.5]];portConstraint=eastwest;imageWidth=16;imageHeight=16;image=data:image/png,iVBORw0KGgoAAAANSUhEUgAAACAAAAAgCAYAAABzenr0AAACPklEQVR4Xu2WuUsDQRTG03hbe7USi9jZaGNjtNBokyjZFQUrG/GsbATvUtTOSm2DuyERBMH7qtIE2VWwEDz+Aa2s1vf2kNmXZNfsERD8YIqdnZnfN2/fvNlA4F+/VGZnvEwWuQlZ4Bay4mgdfe+rXhNDVQA/gabo7eU+GW+m43wRC7/bjymHW/2lM0Hhgz2tSrgjqKQ2S2AiH7yzrVltOSZSfD2d70pWcNZEelszIYn8El3DsX4DxxbtCik3e1EtCgI/Q9dxJEdwkbt63h2rpGsVLSkxVO4Enj0eraFrscJ1JYGflARu0TJXcJDX8MzhQDXkx5k+3vrUYCLhoPRmRAm3B+3gRbVb2JSRsA8i9wpRaaD8gCyMNMKAdxyU3OgzmXADx4jGurX6kd6KaP1JbpnyVT2I8RZqwi7sBsh4fjrqrYDnc+zDnSM8zyZm2TVMYk1gsbGCo6gBSeSmbODXtqeGNWEFR+UaMOcShcP3r2XnF9RjimuCo7MOZuasHOcYgASD5zfDhCN4MaIG1L6D4aBhwlc4Shb5D4RgxEz9cKrgyK3ZRdC1AHKKBgA0T9+h1FMBdwX8Sa3kPf9uBQtH9DB/oQkWgokLEbo0PgUWoYKV0I1wd8z3zmm3kIg/RciP/wcURkKv+58UHg2HzP8PcDHR+Z5Jq4Ra2A24Woy6Q8qdfiSxWNF5nklNOAs4tHM0Sed5JrxoEPRTCc3wC7yi6RxPRSshCy9Uzj1XnkpYOrghLRL8qpyMT/v6zf+8vgFG80iK7km8qAAAAABJRU5ErkJggg==">
      <mxGeometry x="138" y="69" width="84" height="25" as="geometry" />
    </mxCell>
    <mxCell id="node2" parent="1" vertex="1" value="NameForm" style="label;fontStyle=0;strokeColor=default;fillColor=none;align=left;verticalAlign=middle;overflow=hidden;spacingLeft=28;spacingRight=4;rotatable=0;points=[[0,0.5],[1,0.5]];portConstraint=eastwest;imageWidth=16;imageHeight=16;image=data:image/png,iVBORw0KGgoAAAANSUhEUgAAACAAAAAgCAYAAABzenr0AAACPklEQVR4Xu2WuUsDQRTG03hbe7USi9jZaGNjtNBokyjZFQUrG/GsbATvUtTOSm2DuyERBMH7qtIE2VWwEDz+Aa2s1vf2kNmXZNfsERD8YIqdnZnfN2/fvNlA4F+/VGZnvEwWuQlZ4Bay4mgdfe+rXhNDVQA/gabo7eU+GW+m43wRC7/bjymHW/2lM0Hhgz2tSrgjqKQ2S2AiH7yzrVltOSZSfD2d70pWcNZEelszIYn8El3DsX4DxxbtCik3e1EtCgI/Q9dxJEdwkbt63h2rpGsVLSkxVO4Enj0eraFrscJ1JYGflARu0TJXcJDX8MzhQDXkx5k+3vrUYCLhoPRmRAm3B+3gRbVb2JSRsA8i9wpRaaD8gCyMNMKAdxyU3OgzmXADx4jGurX6kd6KaP1JbpnyVT2I8RZqwi7sBsh4fjrqrYDnc+zDnSM8zyZm2TVMYk1gsbGCo6gBSeSmbODXtqeGNWEFR+UaMOcShcP3r2XnF9RjimuCo7MOZuasHOcYgASD5zfDhCN4MaIG1L6D4aBhwlc4Shb5D4RgxEz9cKrgyK3ZRdC1AHKKBgA0T9+h1FMBdwX8Sa3kPf9uBQtH9DB/oQkWgokLEbo0PgUWoYKV0I1wd8z3zmm3kIg/RciP/wcURkKv+58UHg2HzP8PcDHR+Z5Jq4Ra2A24Woy6Q8qdfiSxWNF5nklNOAs4tHM0Sed5JrxoEPRTCc3wC7yi6RxPRSshCy9Uzj1XnkpYOrghLRL8qpyMT/v6zf+8vgFG80iK7km8qAAAAABJRU5ErkJggg==">
      <mxGeometry x="573" y="509" width="94" height="25" as="geometry" />
    </mxCell>
    <mxCell id="node18" parent="1" vertex="1" value="NativeWindow" style="label;fontStyle=0;strokeColor=default;fillColor=none;align=left;verticalAlign=middle;overflow=hidden;spacingLeft=28;spacingRight=4;rotatable=0;points=[[0,0.5],[1,0.5]];portConstraint=eastwest;imageWidth=16;imageHeight=16;image=data:image/png,iVBORw0KGgoAAAANSUhEUgAAACAAAAAgCAYAAABzenr0AAACPklEQVR4Xu2WuUsDQRTG03hbe7USi9jZaGNjtNBokyjZFQUrG/GsbATvUtTOSm2DuyERBMH7qtIE2VWwEDz+Aa2s1vf2kNmXZNfsERD8YIqdnZnfN2/fvNlA4F+/VGZnvEwWuQlZ4Bay4mgdfe+rXhNDVQA/gabo7eU+GW+m43wRC7/bjymHW/2lM0Hhgz2tSrgjqKQ2S2AiH7yzrVltOSZSfD2d70pWcNZEelszIYn8El3DsX4DxxbtCik3e1EtCgI/Q9dxJEdwkbt63h2rpGsVLSkxVO4Enj0eraFrscJ1JYGflARu0TJXcJDX8MzhQDXkx5k+3vrUYCLhoPRmRAm3B+3gRbVb2JSRsA8i9wpRaaD8gCyMNMKAdxyU3OgzmXADx4jGurX6kd6KaP1JbpnyVT2I8RZqwi7sBsh4fjrqrYDnc+zDnSM8zyZm2TVMYk1gsbGCo6gBSeSmbODXtqeGNWEFR+UaMOcShcP3r2XnF9RjimuCo7MOZuasHOcYgASD5zfDhCN4MaIG1L6D4aBhwlc4Shb5D4RgxEz9cKrgyK3ZRdC1AHKKBgA0T9+h1FMBdwX8Sa3kPf9uBQtH9DB/oQkWgokLEbo0PgUWoYKV0I1wd8z3zmm3kIg/RciP/wcURkKv+58UHg2HzP8PcDHR+Z5Jq4Ra2A24Woy6Q8qdfiSxWNF5nklNOAs4tHM0Sed5JrxoEPRTCc3wC7yi6RxPRSshCy9Uzj1XnkpYOrghLRL8qpyMT/v6zf+8vgFG80iK7km8qAAAAABJRU5ErkJggg==">
      <mxGeometry x="-98" y="769" width="116" height="25" as="geometry" />
    </mxCell>
    <mxCell id="node15" parent="1" vertex="1" value="OrderValidator" style="label;fontStyle=0;strokeColor=default;fillColor=none;align=left;verticalAlign=middle;overflow=hidden;spacingLeft=28;spacingRight=4;rotatable=0;points=[[0,0.5],[1,0.5]];portConstraint=eastwest;imageWidth=16;imageHeight=16;image=data:image/png,iVBORw0KGgoAAAANSUhEUgAAACAAAAAgCAYAAABzenr0AAACPklEQVR4Xu2WuUsDQRTG03hbe7USi9jZaGNjtNBokyjZFQUrG/GsbATvUtTOSm2DuyERBMH7qtIE2VWwEDz+Aa2s1vf2kNmXZNfsERD8YIqdnZnfN2/fvNlA4F+/VGZnvEwWuQlZ4Bay4mgdfe+rXhNDVQA/gabo7eU+GW+m43wRC7/bjymHW/2lM0Hhgz2tSrgjqKQ2S2AiH7yzrVltOSZSfD2d70pWcNZEelszIYn8El3DsX4DxxbtCik3e1EtCgI/Q9dxJEdwkbt63h2rpGsVLSkxVO4Enj0eraFrscJ1JYGflARu0TJXcJDX8MzhQDXkx5k+3vrUYCLhoPRmRAm3B+3gRbVb2JSRsA8i9wpRaaD8gCyMNMKAdxyU3OgzmXADx4jGurX6kd6KaP1JbpnyVT2I8RZqwi7sBsh4fjrqrYDnc+zDnSM8zyZm2TVMYk1gsbGCo6gBSeSmbODXtqeGNWEFR+UaMOcShcP3r2XnF9RjimuCo7MOZuasHOcYgASD5zfDhCN4MaIG1L6D4aBhwlc4Shb5D4RgxEz9cKrgyK3ZRdC1AHKKBgA0T9+h1FMBdwX8Sa3kPf9uBQtH9DB/oQkWgokLEbo0PgUWoYKV0I1wd8z3zmm3kIg/RciP/wcURkKv+58UHg2HzP8PcDHR+Z5Jq4Ra2A24Woy6Q8qdfiSxWNF5nklNOAs4tHM0Sed5JrxoEPRTCc3wC7yi6RxPRSshCy9Uzj1XnkpYOrghLRL8qpyMT/v6zf+8vgFG80iK7km8qAAAAABJRU5ErkJggg==">
      <mxGeometry x="782" y="769" width="117" height="25" as="geometry" />
    </mxCell>
    <mxCell id="node19" parent="1" vertex="1" value="Program" style="label;fontStyle=0;strokeColor=default;fillColor=none;align=left;verticalAlign=middle;overflow=hidden;spacingLeft=28;spacingRight=4;rotatable=0;points=[[0,0.5],[1,0.5]];portConstraint=eastwest;imageWidth=16;imageHeight=16;image=data:image/png,iVBORw0KGgoAAAANSUhEUgAAACAAAAAgCAYAAABzenr0AAACPklEQVR4Xu2WuUsDQRTG03hbe7USi9jZaGNjtNBokyjZFQUrG/GsbATvUtTOSm2DuyERBMH7qtIE2VWwEDz+Aa2s1vf2kNmXZNfsERD8YIqdnZnfN2/fvNlA4F+/VGZnvEwWuQlZ4Bay4mgdfe+rXhNDVQA/gabo7eU+GW+m43wRC7/bjymHW/2lM0Hhgz2tSrgjqKQ2S2AiH7yzrVltOSZSfD2d70pWcNZEelszIYn8El3DsX4DxxbtCik3e1EtCgI/Q9dxJEdwkbt63h2rpGsVLSkxVO4Enj0eraFrscJ1JYGflARu0TJXcJDX8MzhQDXkx5k+3vrUYCLhoPRmRAm3B+3gRbVb2JSRsA8i9wpRaaD8gCyMNMKAdxyU3OgzmXADx4jGurX6kd6KaP1JbpnyVT2I8RZqwi7sBsh4fjrqrYDnc+zDnSM8zyZm2TVMYk1gsbGCo6gBSeSmbODXtqeGNWEFR+UaMOcShcP3r2XnF9RjimuCo7MOZuasHOcYgASD5zfDhCN4MaIG1L6D4aBhwlc4Shb5D4RgxEz9cKrgyK3ZRdC1AHKKBgA0T9+h1FMBdwX8Sa3kPf9uBQtH9DB/oQkWgokLEbo0PgUWoYKV0I1wd8z3zmm3kIg/RciP/wcURkKv+58UHg2HzP8PcDHR+Z5Jq4Ra2A24Woy6Q8qdfiSxWNF5nklNOAs4tHM0Sed5JrxoEPRTCc3wC7yi6RxPRSshCy9Uzj1XnkpYOrghLRL8qpyMT/v6zf+8vgFG80iK7km8qAAAAABJRU5ErkJggg==">
      <mxGeometry x="281" y="889" width="78" height="25" as="geometry" />
    </mxCell>
    <mxCell id="node7" parent="1" vertex="1" value="SQL" style="label;fontStyle=0;strokeColor=default;fillColor=none;align=left;verticalAlign=middle;overflow=hidden;spacingLeft=28;spacingRight=4;rotatable=0;points=[[0,0.5],[1,0.5]];portConstraint=eastwest;imageWidth=16;imageHeight=16;image=data:image/png,iVBORw0KGgoAAAANSUhEUgAAACAAAAAgCAYAAABzenr0AAACPklEQVR4Xu2WuUsDQRTG03hbe7USi9jZaGNjtNBokyjZFQUrG/GsbATvUtTOSm2DuyERBMH7qtIE2VWwEDz+Aa2s1vf2kNmXZNfsERD8YIqdnZnfN2/fvNlA4F+/VGZnvEwWuQlZ4Bay4mgdfe+rXhNDVQA/gabo7eU+GW+m43wRC7/bjymHW/2lM0Hhgz2tSrgjqKQ2S2AiH7yzrVltOSZSfD2d70pWcNZEelszIYn8El3DsX4DxxbtCik3e1EtCgI/Q9dxJEdwkbt63h2rpGsVLSkxVO4Enj0eraFrscJ1JYGflARu0TJXcJDX8MzhQDXkx5k+3vrUYCLhoPRmRAm3B+3gRbVb2JSRsA8i9wpRaaD8gCyMNMKAdxyU3OgzmXADx4jGurX6kd6KaP1JbpnyVT2I8RZqwi7sBsh4fjrqrYDnc+zDnSM8zyZm2TVMYk1gsbGCo6gBSeSmbODXtqeGNWEFR+UaMOcShcP3r2XnF9RjimuCo7MOZuasHOcYgASD5zfDhCN4MaIG1L6D4aBhwlc4Shb5D4RgxEz9cKrgyK3ZRdC1AHKKBgA0T9+h1FMBdwX8Sa3kPf9uBQtH9DB/oQkWgokLEbo0PgUWoYKV0I1wd8z3zmm3kIg/RciP/wcURkKv+58UHg2HzP8PcDHR+Z5Jq4Ra2A24Woy6Q8qdfiSxWNF5nklNOAs4tHM0Sed5JrxoEPRTCc3wC7yi6RxPRSshCy9Uzj1XnkpYOrghLRL8qpyMT/v6zf+8vgFG80iK7km8qAAAAABJRU5ErkJggg==">
      <mxGeometry x="435" y="229" width="51" height="25" as="geometry" />
    </mxCell>
    <mxCell id="node8" parent="1" vertex="1" value="ThrowHelper" style="label;fontStyle=0;strokeColor=default;fillColor=none;align=left;verticalAlign=middle;overflow=hidden;spacingLeft=28;spacingRight=4;rotatable=0;points=[[0,0.5],[1,0.5]];portConstraint=eastwest;imageWidth=16;imageHeight=16;image=data:image/png,iVBORw0KGgoAAAANSUhEUgAAACAAAAAgCAYAAABzenr0AAACPklEQVR4Xu2WuUsDQRTG03hbe7USi9jZaGNjtNBokyjZFQUrG/GsbATvUtTOSm2DuyERBMH7qtIE2VWwEDz+Aa2s1vf2kNmXZNfsERD8YIqdnZnfN2/fvNlA4F+/VGZnvEwWuQlZ4Bay4mgdfe+rXhNDVQA/gabo7eU+GW+m43wRC7/bjymHW/2lM0Hhgz2tSrgjqKQ2S2AiH7yzrVltOSZSfD2d70pWcNZEelszIYn8El3DsX4DxxbtCik3e1EtCgI/Q9dxJEdwkbt63h2rpGsVLSkxVO4Enj0eraFrscJ1JYGflARu0TJXcJDX8MzhQDXkx5k+3vrUYCLhoPRmRAm3B+3gRbVb2JSRsA8i9wpRaaD8gCyMNMKAdxyU3OgzmXADx4jGurX6kd6KaP1JbpnyVT2I8RZqwi7sBsh4fjrqrYDnc+zDnSM8zyZm2TVMYk1gsbGCo6gBSeSmbODXtqeGNWEFR+UaMOcShcP3r2XnF9RjimuCo7MOZuasHOcYgASD5zfDhCN4MaIG1L6D4aBhwlc4Shb5D4RgxEz9cKrgyK3ZRdC1AHKKBgA0T9+h1FMBdwX8Sa3kPf9uBQtH9DB/oQkWgokLEbo0PgUWoYKV0I1wd8z3zmm3kIg/RciP/wcURkKv+58UHg2HzP8PcDHR+Z5Jq4Ra2A24Woy6Q8qdfiSxWNF5nklNOAs4tHM0Sed5JrxoEPRTCc3wC7yi6RxPRSshCy9Uzj1XnkpYOrghLRL8qpyMT/v6zf+8vgFG80iK7km8qAAAAABJRU5ErkJggg==">
      <mxGeometry x="706" y="709" width="108" height="25" as="geometry" />
    </mxCell>
    <mxCell id="node10" parent="1" vertex="1" value="catagory" style="label;fontStyle=0;strokeColor=default;fillColor=none;align=left;verticalAlign=middle;overflow=hidden;spacingLeft=28;spacingRight=4;rotatable=0;points=[[0,0.5],[1,0.5]];portConstraint=eastwest;imageWidth=16;imageHeight=16;image=data:image/png,iVBORw0KGgoAAAANSUhEUgAAACAAAAAgCAYAAABzenr0AAACPklEQVR4Xu2WuUsDQRTG03hbe7USi9jZaGNjtNBokyjZFQUrG/GsbATvUtTOSm2DuyERBMH7qtIE2VWwEDz+Aa2s1vf2kNmXZNfsERD8YIqdnZnfN2/fvNlA4F+/VGZnvEwWuQlZ4Bay4mgdfe+rXhNDVQA/gabo7eU+GW+m43wRC7/bjymHW/2lM0Hhgz2tSrgjqKQ2S2AiH7yzrVltOSZSfD2d70pWcNZEelszIYn8El3DsX4DxxbtCik3e1EtCgI/Q9dxJEdwkbt63h2rpGsVLSkxVO4Enj0eraFrscJ1JYGflARu0TJXcJDX8MzhQDXkx5k+3vrUYCLhoPRmRAm3B+3gRbVb2JSRsA8i9wpRaaD8gCyMNMKAdxyU3OgzmXADx4jGurX6kd6KaP1JbpnyVT2I8RZqwi7sBsh4fjrqrYDnc+zDnSM8zyZm2TVMYk1gsbGCo6gBSeSmbODXtqeGNWEFR+UaMOcShcP3r2XnF9RjimuCo7MOZuasHOcYgASD5zfDhCN4MaIG1L6D4aBhwlc4Shb5D4RgxEz9cKrgyK3ZRdC1AHKKBgA0T9+h1FMBdwX8Sa3kPf9uBQtH9DB/oQkWgokLEbo0PgUWoYKV0I1wd8z3zmm3kIg/RciP/wcURkKv+58UHg2HzP8PcDHR+Z5Jq4Ra2A24Woy6Q8qdfiSxWNF5nklNOAs4tHM0Sed5JrxoEPRTCc3wC7yi6RxPRSshCy9Uzj1XnkpYOrghLRL8qpyMT/v6zf+8vgFG80iK7km8qAAAAABJRU5ErkJggg==">
      <mxGeometry x="460" y="69" width="80" height="25" as="geometry" />
    </mxCell>
    <mxCell id="node14" parent="1" vertex="1" value="firstRun" style="label;fontStyle=0;strokeColor=default;fillColor=none;align=left;verticalAlign=middle;overflow=hidden;spacingLeft=28;spacingRight=4;rotatable=0;points=[[0,0.5],[1,0.5]];portConstraint=eastwest;imageWidth=16;imageHeight=16;image=data:image/png,iVBORw0KGgoAAAANSUhEUgAAACAAAAAgCAYAAABzenr0AAACPklEQVR4Xu2WuUsDQRTG03hbe7USi9jZaGNjtNBokyjZFQUrG/GsbATvUtTOSm2DuyERBMH7qtIE2VWwEDz+Aa2s1vf2kNmXZNfsERD8YIqdnZnfN2/fvNlA4F+/VGZnvEwWuQlZ4Bay4mgdfe+rXhNDVQA/gabo7eU+GW+m43wRC7/bjymHW/2lM0Hhgz2tSrgjqKQ2S2AiH7yzrVltOSZSfD2d70pWcNZEelszIYn8El3DsX4DxxbtCik3e1EtCgI/Q9dxJEdwkbt63h2rpGsVLSkxVO4Enj0eraFrscJ1JYGflARu0TJXcJDX8MzhQDXkx5k+3vrUYCLhoPRmRAm3B+3gRbVb2JSRsA8i9wpRaaD8gCyMNMKAdxyU3OgzmXADx4jGurX6kd6KaP1JbpnyVT2I8RZqwi7sBsh4fjrqrYDnc+zDnSM8zyZm2TVMYk1gsbGCo6gBSeSmbODXtqeGNWEFR+UaMOcShcP3r2XnF9RjimuCo7MOZuasHOcYgASD5zfDhCN4MaIG1L6D4aBhwlc4Shb5D4RgxEz9cKrgyK3ZRdC1AHKKBgA0T9+h1FMBdwX8Sa3kPf9uBQtH9DB/oQkWgokLEbo0PgUWoYKV0I1wd8z3zmm3kIg/RciP/wcURkKv+58UHg2HzP8PcDHR+Z5Jq4Ra2A24Woy6Q8qdfiSxWNF5nklNOAs4tHM0Sed5JrxoEPRTCc3wC7yi6RxPRSshCy9Uzj1XnkpYOrghLRL8qpyMT/v6zf+8vgFG80iK7km8qAAAAABJRU5ErkJggg==">
      <mxGeometry x="63" y="369" width="75" height="25" as="geometry" />
    </mxCell>
    <mxCell id="node1" parent="1" vertex="1" value="item" style="label;fontStyle=0;strokeColor=default;fillColor=none;align=left;verticalAlign=middle;overflow=hidden;spacingLeft=28;spacingRight=4;rotatable=0;points=[[0,0.5],[1,0.5]];portConstraint=eastwest;imageWidth=16;imageHeight=16;image=data:image/png,iVBORw0KGgoAAAANSUhEUgAAACAAAAAgCAYAAABzenr0AAACPklEQVR4Xu2WuUsDQRTG03hbe7USi9jZaGNjtNBokyjZFQUrG/GsbATvUtTOSm2DuyERBMH7qtIE2VWwEDz+Aa2s1vf2kNmXZNfsERD8YIqdnZnfN2/fvNlA4F+/VGZnvEwWuQlZ4Bay4mgdfe+rXhNDVQA/gabo7eU+GW+m43wRC7/bjymHW/2lM0Hhgz2tSrgjqKQ2S2AiH7yzrVltOSZSfD2d70pWcNZEelszIYn8El3DsX4DxxbtCik3e1EtCgI/Q9dxJEdwkbt63h2rpGsVLSkxVO4Enj0eraFrscJ1JYGflARu0TJXcJDX8MzhQDXkx5k+3vrUYCLhoPRmRAm3B+3gRbVb2JSRsA8i9wpRaaD8gCyMNMKAdxyU3OgzmXADx4jGurX6kd6KaP1JbpnyVT2I8RZqwi7sBsh4fjrqrYDnc+zDnSM8zyZm2TVMYk1gsbGCo6gBSeSmbODXtqeGNWEFR+UaMOcShcP3r2XnF9RjimuCo7MOZuasHOcYgASD5zfDhCN4MaIG1L6D4aBhwlc4Shb5D4RgxEz9cKrgyK3ZRdC1AHKKBgA0T9+h1FMBdwX8Sa3kPf9uBQtH9DB/oQkWgokLEbo0PgUWoYKV0I1wd8z3zmm3kIg/RciP/wcURkKv+58UHg2HzP8PcDHR+Z5Jq4Ra2A24Woy6Q8qdfiSxWNF5nklNOAs4tHM0Sed5JrxoEPRTCc3wC7yi6RxPRSshCy9Uzj1XnkpYOrghLRL8qpyMT/v6zf+8vgFG80iK7km8qAAAAABJRU5ErkJggg==">
      <mxGeometry x="474" y="-11" width="53" height="25" as="geometry" />
    </mxCell>
    <mxCell id="node16" parent="1" vertex="1" value="rowOfItem" style="label;fontStyle=0;strokeColor=default;fillColor=none;align=left;verticalAlign=middle;overflow=hidden;spacingLeft=28;spacingRight=4;rotatable=0;points=[[0,0.5],[1,0.5]];portConstraint=eastwest;imageWidth=16;imageHeight=16;image=data:image/png,iVBORw0KGgoAAAANSUhEUgAAACAAAAAgCAYAAABzenr0AAACPklEQVR4Xu2WuUsDQRTG03hbe7USi9jZaGNjtNBokyjZFQUrG/GsbATvUtTOSm2DuyERBMH7qtIE2VWwEDz+Aa2s1vf2kNmXZNfsERD8YIqdnZnfN2/fvNlA4F+/VGZnvEwWuQlZ4Bay4mgdfe+rXhNDVQA/gabo7eU+GW+m43wRC7/bjymHW/2lM0Hhgz2tSrgjqKQ2S2AiH7yzrVltOSZSfD2d70pWcNZEelszIYn8El3DsX4DxxbtCik3e1EtCgI/Q9dxJEdwkbt63h2rpGsVLSkxVO4Enj0eraFrscJ1JYGflARu0TJXcJDX8MzhQDXkx5k+3vrUYCLhoPRmRAm3B+3gRbVb2JSRsA8i9wpRaaD8gCyMNMKAdxyU3OgzmXADx4jGurX6kd6KaP1JbpnyVT2I8RZqwi7sBsh4fjrqrYDnc+zDnSM8zyZm2TVMYk1gsbGCo6gBSeSmbODXtqeGNWEFR+UaMOcShcP3r2XnF9RjimuCo7MOZuasHOcYgASD5zfDhCN4MaIG1L6D4aBhwlc4Shb5D4RgxEz9cKrgyK3ZRdC1AHKKBgA0T9+h1FMBdwX8Sa3kPf9uBQtH9DB/oQkWgokLEbo0PgUWoYKV0I1wd8z3zmm3kIg/RciP/wcURkKv+58UHg2HzP8PcDHR+Z5Jq4Ra2A24Woy6Q8qdfiSxWNF5nklNOAs4tHM0Sed5JrxoEPRTCc3wC7yi6RxPRSshCy9Uzj1XnkpYOrghLRL8qpyMT/v6zf+8vgFG80iK7km8qAAAAABJRU5ErkJggg==">
      <mxGeometry x="814" y="509" width="92" height="25" as="geometry" />
    </mxCell>
    <mxCell id="node9" parent="1" vertex="1" value="rowPanelTag" style="label;fontStyle=0;strokeColor=default;fillColor=none;align=left;verticalAlign=middle;overflow=hidden;spacingLeft=28;spacingRight=4;rotatable=0;points=[[0,0.5],[1,0.5]];portConstraint=eastwest;imageWidth=16;imageHeight=16;image=data:image/png,iVBORw0KGgoAAAANSUhEUgAAACAAAAAgCAYAAABzenr0AAACPklEQVR4Xu2WuUsDQRTG03hbe7USi9jZaGNjtNBokyjZFQUrG/GsbATvUtTOSm2DuyERBMH7qtIE2VWwEDz+Aa2s1vf2kNmXZNfsERD8YIqdnZnfN2/fvNlA4F+/VGZnvEwWuQlZ4Bay4mgdfe+rXhNDVQA/gabo7eU+GW+m43wRC7/bjymHW/2lM0Hhgz2tSrgjqKQ2S2AiH7yzrVltOSZSfD2d70pWcNZEelszIYn8El3DsX4DxxbtCik3e1EtCgI/Q9dxJEdwkbt63h2rpGsVLSkxVO4Enj0eraFrscJ1JYGflARu0TJXcJDX8MzhQDXkx5k+3vrUYCLhoPRmRAm3B+3gRbVb2JSRsA8i9wpRaaD8gCyMNMKAdxyU3OgzmXADx4jGurX6kd6KaP1JbpnyVT2I8RZqwi7sBsh4fjrqrYDnc+zDnSM8zyZm2TVMYk1gsbGCo6gBSeSmbODXtqeGNWEFR+UaMOcShcP3r2XnF9RjimuCo7MOZuasHOcYgASD5zfDhCN4MaIG1L6D4aBhwlc4Shb5D4RgxEz9cKrgyK3ZRdC1AHKKBgA0T9+h1FMBdwX8Sa3kPf9uBQtH9DB/oQkWgokLEbo0PgUWoYKV0I1wd8z3zmm3kIg/RciP/wcURkKv+58UHg2HzP8PcDHR+Z5Jq4Ra2A24Woy6Q8qdfiSxWNF5nklNOAs4tHM0Sed5JrxoEPRTCc3wC7yi6RxPRSshCy9Uzj1XnkpYOrghLRL8qpyMT/v6zf+8vgFG80iK7km8qAAAAABJRU5ErkJggg==">
      <mxGeometry x="787" y="369" width="107" height="25" as="geometry" />
    </mxCell>
    <mxCell id="node3" parent="1" vertex="1" value="staff" style="label;fontStyle=0;strokeColor=default;fillColor=none;align=left;verticalAlign=middle;overflow=hidden;spacingLeft=28;spacingRight=4;rotatable=0;points=[[0,0.5],[1,0.5]];portConstraint=eastwest;imageWidth=16;imageHeight=16;image=data:image/png,iVBORw0KGgoAAAANSUhEUgAAACAAAAAgCAYAAABzenr0AAACPklEQVR4Xu2WuUsDQRTG03hbe7USi9jZaGNjtNBokyjZFQUrG/GsbATvUtTOSm2DuyERBMH7qtIE2VWwEDz+Aa2s1vf2kNmXZNfsERD8YIqdnZnfN2/fvNlA4F+/VGZnvEwWuQlZ4Bay4mgdfe+rXhNDVQA/gabo7eU+GW+m43wRC7/bjymHW/2lM0Hhgz2tSrgjqKQ2S2AiH7yzrVltOSZSfD2d70pWcNZEelszIYn8El3DsX4DxxbtCik3e1EtCgI/Q9dxJEdwkbt63h2rpGsVLSkxVO4Enj0eraFrscJ1JYGflARu0TJXcJDX8MzhQDXkx5k+3vrUYCLhoPRmRAm3B+3gRbVb2JSRsA8i9wpRaaD8gCyMNMKAdxyU3OgzmXADx4jGurX6kd6KaP1JbpnyVT2I8RZqwi7sBsh4fjrqrYDnc+zDnSM8zyZm2TVMYk1gsbGCo6gBSeSmbODXtqeGNWEFR+UaMOcShcP3r2XnF9RjimuCo7MOZuasHOcYgASD5zfDhCN4MaIG1L6D4aBhwlc4Shb5D4RgxEz9cKrgyK3ZRdC1AHKKBgA0T9+h1FMBdwX8Sa3kPf9uBQtH9DB/oQkWgokLEbo0PgUWoYKV0I1wd8z3zmm3kIg/RciP/wcURkKv+58UHg2HzP8PcDHR+Z5Jq4Ra2A24Woy6Q8qdfiSxWNF5nklNOAs4tHM0Sed5JrxoEPRTCc3wC7yi6RxPRSshCy9Uzj1XnkpYOrghLRL8qpyMT/v6zf+8vgFG80iK7km8qAAAAABJRU5ErkJggg==">
      <mxGeometry x="619" y="69" width="123" height="25" as="geometry" />
    </mxCell>
    <mxCell id="node0" parent="1" vertex="1" value="sync" style="label;fontStyle=0;strokeColor=default;fillColor=none;align=left;verticalAlign=middle;overflow=hidden;spacingLeft=28;spacingRight=4;rotatable=0;points=[[0,0.5],[1,0.5]];portConstraint=eastwest;imageWidth=16;imageHeight=16;image=data:image/png,iVBORw0KGgoAAAANSUhEUgAAACAAAAAgCAYAAABzenr0AAACPklEQVR4Xu2WuUsDQRTG03hbe7USi9jZaGNjtNBokyjZFQUrG/GsbATvUtTOSm2DuyERBMH7qtIE2VWwEDz+Aa2s1vf2kNmXZNfsERD8YIqdnZnfN2/fvNlA4F+/VGZnvEwWuQlZ4Bay4mgdfe+rXhNDVQA/gabo7eU+GW+m43wRC7/bjymHW/2lM0Hhgz2tSrgjqKQ2S2AiH7yzrVltOSZSfD2d70pWcNZEelszIYn8El3DsX4DxxbtCik3e1EtCgI/Q9dxJEdwkbt63h2rpGsVLSkxVO4Enj0eraFrscJ1JYGflARu0TJXcJDX8MzhQDXkx5k+3vrUYCLhoPRmRAm3B+3gRbVb2JSRsA8i9wpRaaD8gCyMNMKAdxyU3OgzmXADx4jGurX6kd6KaP1JbpnyVT2I8RZqwi7sBsh4fjrqrYDnc+zDnSM8zyZm2TVMYk1gsbGCo6gBSeSmbODXtqeGNWEFR+UaMOcShcP3r2XnF9RjimuCo7MOZuasHOcYgASD5zfDhCN4MaIG1L6D4aBhwlc4Shb5D4RgxEz9cKrgyK3ZRdC1AHKKBgA0T9+h1FMBdwX8Sa3kPf9uBQtH9DB/oQkWgokLEbo0PgUWoYKV0I1wd8z3zmm3kIg/RciP/wcURkKv+58UHg2HzP8PcDHR+Z5Jq4Ra2A24Woy6Q8qdfiSxWNF5nklNOAs4tHM0Sed5JrxoEPRTCc3wC7yi6RxPRSshCy9Uzj1XnkpYOrghLRL8qpyMT/v6zf+8vgFG80iK7km8qAAAAABJRU5ErkJggg==">
      <mxGeometry x="493" y="369" width="55" height="25" as="geometry" />
    </mxCell>
    <mxCell id="edge23" edge="1" value="" parent="1" source="node11" target="node13" style="html=1;rounded=1;edgeStyle=orthogonalEdgeStyle;dashed=0;startArrow=none;endArrow=block;endSize=12;strokeColor=#3574f0;exitX=0.500;exitY=0.001;exitDx=0;exitDy=0;entryX=0.750;entryY=1.002;entryDx=0;entryDy=0;">
      <mxGeometry width="50" height="50" relative="1" as="geometry">
        <Array as="points">
          <mxPoint x="320" y="340" />
          <mxPoint x="318" y="340" />
        </Array>
      </mxGeometry>
    </mxCell>
    <mxCell id="edge24" edge="1" value="" parent="1" source="node17" target="node13" style="html=1;rounded=1;edgeStyle=orthogonalEdgeStyle;dashed=0;startArrow=none;endArrow=block;endSize=12;strokeColor=#3574f0;exitX=0.357;exitY=0.001;exitDx=0;exitDy=0;entryX=0.250;entryY=1.002;entryDx=0;entryDy=0;">
      <mxGeometry width="50" height="50" relative="1" as="geometry">
        <Array as="points">
          <mxPoint x="342" y="440" />
          <mxPoint x="200" y="440" />
          <mxPoint x="200" y="340" />
          <mxPoint x="243" y="340" />
        </Array>
      </mxGeometry>
    </mxCell>
    <mxCell id="edge5" edge="1" value="" parent="1" source="node17" target="node11" style="html=1;rounded=1;edgeStyle=orthogonalEdgeStyle;dashed=1;dashPattern=1 1;startArrow=none;endArrow=block;endSize=12;strokeColor=#5fad65;exitX=0.500;exitY=0.002;exitDx=0;exitDy=0;entryX=0.250;entryY=1.001;entryDx=0;entryDy=0;">
      <mxGeometry width="50" height="50" relative="1" as="geometry">
        <Array as="points">
          <mxPoint x="360" y="420" />
          <mxPoint x="269" y="420" />
        </Array>
      </mxGeometry>
    </mxCell>
    <mxCell id="edge7" edge="1" value="" parent="1" source="node17" target="node11" style="html=1;rounded=1;edgeStyle=orthogonalEdgeStyle;dashed=0;startArrow=none;endArrow=block;endSize=12;strokeColor=#3574f0;exitX=0.643;exitY=0.001;exitDx=0;exitDy=0;entryX=0.750;entryY=1.002;entryDx=0;entryDy=0;">
      <mxGeometry width="50" height="50" relative="1" as="geometry">
        <Array as="points">
          <mxPoint x="378" y="480" />
          <mxPoint x="371" y="480" />
        </Array>
      </mxGeometry>
    </mxCell>
    <mxCell id="edge25" edge="1" value="" parent="1" source="node17" target="node6" style="html=1;rounded=1;edgeStyle=orthogonalEdgeStyle;dashed=0;startArrow=none;endArrow=block;endSize=12;strokeColor=#3574f0;exitX=0.833;exitY=1.002;exitDx=0;exitDy=0;entryX=0.208;entryY=0.002;entryDx=0;entryDy=0;">
      <mxGeometry width="50" height="50" relative="1" as="geometry">
        <Array as="points">
          <mxPoint x="403" y="680" />
          <mxPoint x="641" y="680" />
        </Array>
      </mxGeometry>
    </mxCell>
    <mxCell id="edge36" edge="1" value="" parent="1" source="node17" target="node5" style="html=1;rounded=1;edgeStyle=orthogonalEdgeStyle;dashed=0;startArrow=none;endArrow=block;endSize=12;strokeColor=#3574f0;exitX=0.214;exitY=0.002;exitDx=0;exitDy=0;entryX=0.500;entryY=1.002;entryDx=0;entryDy=0;">
      <mxGeometry width="50" height="50" relative="1" as="geometry">
        <Array as="points">
          <mxPoint x="323" y="460" />
          <mxPoint x="180" y="460" />
        </Array>
      </mxGeometry>
    </mxCell>
    <mxCell id="edge12" edge="1" value="" parent="1" source="node17" target="node7" style="html=1;rounded=1;edgeStyle=orthogonalEdgeStyle;dashed=0;startArrow=none;endArrow=block;endSize=12;strokeColor=#3574f0;exitX=0.786;exitY=0.002;exitDx=0;exitDy=0;entryX=0.167;entryY=1.001;entryDx=0;entryDy=0;">
      <mxGeometry width="50" height="50" relative="1" as="geometry">
        <Array as="points">
          <mxPoint x="397" y="460" />
          <mxPoint x="440" y="460" />
          <mxPoint x="440" y="360" />
          <mxPoint x="443" y="360" />
        </Array>
      </mxGeometry>
    </mxCell>
    <mxCell id="edge39" edge="1" value="" parent="1" source="node17" target="node14" style="html=1;rounded=1;edgeStyle=orthogonalEdgeStyle;dashed=0;startArrow=none;endArrow=block;endSize=12;strokeColor=#3574f0;exitX=0.071;exitY=0.001;exitDx=0;exitDy=0;entryX=0.750;entryY=1.002;entryDx=0;entryDy=0;">
      <mxGeometry width="50" height="50" relative="1" as="geometry">
        <Array as="points">
          <mxPoint x="305" y="480" />
          <mxPoint x="119" y="480" />
        </Array>
      </mxGeometry>
    </mxCell>
    <mxCell id="edge9" edge="1" value="" parent="1" source="node17" target="node0" style="html=1;rounded=1;edgeStyle=orthogonalEdgeStyle;dashed=0;startArrow=none;endArrow=block;endSize=12;strokeColor=#3574f0;exitX=0.929;exitY=0.001;exitDx=0;exitDy=0;entryX=0.125;entryY=1.002;entryDx=0;entryDy=0;">
      <mxGeometry width="50" height="50" relative="1" as="geometry">
        <Array as="points">
          <mxPoint x="415" y="480" />
          <mxPoint x="499" y="480" />
        </Array>
      </mxGeometry>
    </mxCell>
    <mxCell id="edge13" edge="1" value="" parent="1" source="node6" target="node17" style="html=1;rounded=1;edgeStyle=orthogonalEdgeStyle;dashed=0;startArrow=none;endArrow=block;endSize=12;strokeColor=#3574f0;exitX=0.125;exitY=0.001;exitDx=0;exitDy=0;entryX=0.500;entryY=1.002;entryDx=0;entryDy=0;">
      <mxGeometry width="50" height="50" relative="1" as="geometry">
        <Array as="points">
          <mxPoint x="636" y="700" />
          <mxPoint x="360" y="700" />
        </Array>
      </mxGeometry>
    </mxCell>
    <mxCell id="edge40" edge="1" value="" parent="1" source="node6" target="node5" style="html=1;rounded=1;edgeStyle=orthogonalEdgeStyle;dashed=0;startArrow=none;endArrow=block;endSize=12;strokeColor=#3574f0;exitX=0.042;exitY=0.001;exitDx=0;exitDy=0;entryX=0.357;entryY=1.001;entryDx=0;entryDy=0;">
      <mxGeometry width="50" height="50" relative="1" as="geometry">
        <Array as="points">
          <mxPoint x="631" y="740" />
          <mxPoint x="160" y="740" />
          <mxPoint x="160" y="220" />
          <mxPoint x="168" y="220" />
        </Array>
      </mxGeometry>
    </mxCell>
    <mxCell id="edge15" edge="1" value="" parent="1" source="node6" target="node2" style="html=1;rounded=1;edgeStyle=orthogonalEdgeStyle;dashed=0;startArrow=none;endArrow=block;endSize=12;strokeColor=#3574f0;exitX=0.375;exitY=0.001;exitDx=0;exitDy=0;entryX=0.500;entryY=1.001;entryDx=0;entryDy=0;">
      <mxGeometry width="50" height="50" relative="1" as="geometry">
        <Array as="points">
          <mxPoint x="652" y="640" />
          <mxPoint x="620" y="640" />
        </Array>
      </mxGeometry>
    </mxCell>
    <mxCell id="edge34" edge="1" value="" parent="1" source="node6" target="node10" style="html=1;rounded=1;edgeStyle=orthogonalEdgeStyle;dashed=0;startArrow=none;endArrow=block;endSize=12;strokeColor=#3574f0;exitX=0.458;exitY=0.001;exitDx=0;exitDy=0;entryX=0.875;entryY=1.002;entryDx=0;entryDy=0;">
      <mxGeometry width="50" height="50" relative="1" as="geometry">
        <Array as="points">
          <mxPoint x="657" y="560" />
          <mxPoint x="700" y="560" />
          <mxPoint x="700" y="480" />
          <mxPoint x="620" y="480" />
          <mxPoint x="620" y="280" />
          <mxPoint x="580" y="280" />
          <mxPoint x="580" y="180" />
          <mxPoint x="530" y="180" />
        </Array>
      </mxGeometry>
    </mxCell>
    <mxCell id="edge6" edge="1" value="" parent="1" source="node6" target="node1" style="html=1;rounded=1;edgeStyle=orthogonalEdgeStyle;dashed=0;startArrow=none;endArrow=block;endSize=12;strokeColor=#3574f0;exitX=0.958;exitY=0.002;exitDx=0;exitDy=0;entryX=0.833;entryY=1.001;entryDx=0;entryDy=0;">
      <mxGeometry width="50" height="50" relative="1" as="geometry">
        <Array as="points">
          <mxPoint x="689" y="680" />
          <mxPoint x="940" y="680" />
          <mxPoint x="940" y="40" />
          <mxPoint x="518" y="40" />
        </Array>
      </mxGeometry>
    </mxCell>
    <mxCell id="edge4" edge="1" value="" parent="1" source="node6" target="node16" style="html=1;rounded=1;edgeStyle=orthogonalEdgeStyle;dashed=1;dashPattern=1 1;startArrow=none;endArrow=block;endSize=12;strokeColor=#5fad65;exitX=0.792;exitY=0.001;exitDx=0;exitDy=0;entryX=0.250;entryY=1.001;entryDx=0;entryDy=0;">
      <mxGeometry width="50" height="50" relative="1" as="geometry">
        <Array as="points">
          <mxPoint x="679" y="640" />
          <mxPoint x="837" y="640" />
        </Array>
      </mxGeometry>
    </mxCell>
    <mxCell id="edge21" edge="1" value="" parent="1" source="node6" target="node16" style="html=1;rounded=1;edgeStyle=orthogonalEdgeStyle;dashed=0;startArrow=none;endArrow=block;endSize=12;strokeColor=#3574f0;exitX=0.875;exitY=0.001;exitDx=0;exitDy=0;entryX=0.750;entryY=1.001;entryDx=0;entryDy=0;">
      <mxGeometry width="50" height="50" relative="1" as="geometry">
        <Array as="points">
          <mxPoint x="684" y="660" />
          <mxPoint x="883" y="660" />
        </Array>
      </mxGeometry>
    </mxCell>
    <mxCell id="edge30" edge="1" value="" parent="1" source="node6" target="node9" style="html=1;rounded=1;edgeStyle=orthogonalEdgeStyle;dashed=0;startArrow=none;endArrow=block;endSize=12;strokeColor=#3574f0;exitX=0.708;exitY=0.002;exitDx=0;exitDy=0;entryX=0.167;entryY=1.002;entryDx=0;entryDy=0;">
      <mxGeometry width="50" height="50" relative="1" as="geometry">
        <Array as="points">
          <mxPoint x="673" y="620" />
          <mxPoint x="780" y="620" />
          <mxPoint x="780" y="480" />
          <mxPoint x="804" y="480" />
        </Array>
      </mxGeometry>
    </mxCell>
    <mxCell id="edge2" edge="1" value="" parent="1" source="node6" target="node3" style="html=1;rounded=1;edgeStyle=orthogonalEdgeStyle;dashed=1;dashPattern=1 1;startArrow=none;endArrow=block;endSize=12;strokeColor=#5fad65;exitX=0.625;exitY=0.002;exitDx=0;exitDy=0;entryX=0.917;entryY=1.001;entryDx=0;entryDy=0;">
      <mxGeometry width="50" height="50" relative="1" as="geometry">
        <Array as="points">
          <mxPoint x="668" y="600" />
          <mxPoint x="760" y="600" />
          <mxPoint x="760" y="200" />
          <mxPoint x="731" y="200" />
        </Array>
      </mxGeometry>
    </mxCell>
    <mxCell id="edge8" edge="1" value="" parent="1" source="node6" target="node3" style="html=1;rounded=1;edgeStyle=orthogonalEdgeStyle;dashed=0;startArrow=none;endArrow=block;endSize=12;strokeColor=#3574f0;exitX=0.542;exitY=0.002;exitDx=0;exitDy=0;entryX=0.750;entryY=1.001;entryDx=0;entryDy=0;">
      <mxGeometry width="50" height="50" relative="1" as="geometry">
        <Array as="points">
          <mxPoint x="663" y="580" />
          <mxPoint x="740" y="580" />
          <mxPoint x="740" y="220" />
          <mxPoint x="711" y="220" />
        </Array>
      </mxGeometry>
    </mxCell>
    <mxCell id="edge17" edge="1" value="" parent="1" source="node6" target="node0" style="html=1;rounded=1;edgeStyle=orthogonalEdgeStyle;dashed=0;startArrow=none;endArrow=block;endSize=12;strokeColor=#3574f0;exitX=0.292;exitY=0.001;exitDx=0;exitDy=0;entryX=0.625;entryY=1.002;entryDx=0;entryDy=0;">
      <mxGeometry width="50" height="50" relative="1" as="geometry">
        <Array as="points">
          <mxPoint x="647" y="660" />
          <mxPoint x="540" y="660" />
          <mxPoint x="540" y="480" />
          <mxPoint x="527" y="480" />
        </Array>
      </mxGeometry>
    </mxCell>
    <mxCell id="edge19" edge="1" value="" parent="1" source="node2" target="node5" style="html=1;rounded=1;edgeStyle=orthogonalEdgeStyle;dashed=0;startArrow=none;endArrow=block;endSize=12;strokeColor=#3574f0;exitX=0.375;exitY=0.001;exitDx=0;exitDy=0;entryX=0.786;entryY=1.002;entryDx=0;entryDy=0;">
      <mxGeometry width="50" height="50" relative="1" as="geometry">
        <Array as="points">
          <mxPoint x="608" y="440" />
          <mxPoint x="580" y="440" />
          <mxPoint x="580" y="300" />
          <mxPoint x="400" y="300" />
          <mxPoint x="400" y="180" />
          <mxPoint x="204" y="180" />
        </Array>
      </mxGeometry>
    </mxCell>
    <mxCell id="edge3" edge="1" value="" parent="1" source="node2" target="node3" style="html=1;rounded=1;edgeStyle=orthogonalEdgeStyle;dashed=1;dashPattern=1 1;startArrow=none;endArrow=block;endSize=12;strokeColor=#5fad65;exitX=0.625;exitY=0.001;exitDx=0;exitDy=0;entryX=0.417;entryY=1.001;entryDx=0;entryDy=0;">
      <mxGeometry width="50" height="50" relative="1" as="geometry">
        <Array as="points">
          <mxPoint x="632" y="440" />
          <mxPoint x="660" y="440" />
          <mxPoint x="660" y="220" />
          <mxPoint x="670" y="220" />
        </Array>
      </mxGeometry>
    </mxCell>
    <mxCell id="edge38" edge="1" value="" parent="1" source="node2" target="node3" style="html=1;rounded=1;edgeStyle=orthogonalEdgeStyle;dashed=0;startArrow=none;endArrow=block;endSize=12;strokeColor=#3574f0;exitX=0.875;exitY=0.002;exitDx=0;exitDy=0;entryX=0.583;entryY=1.001;entryDx=0;entryDy=0;">
      <mxGeometry width="50" height="50" relative="1" as="geometry">
        <Array as="points">
          <mxPoint x="655" y="460" />
          <mxPoint x="700" y="460" />
          <mxPoint x="700" y="220" />
          <mxPoint x="690" y="220" />
        </Array>
      </mxGeometry>
    </mxCell>
    <mxCell id="edge29" edge="1" value="" parent="1" source="node2" target="node0" style="html=1;rounded=1;edgeStyle=orthogonalEdgeStyle;dashed=0;startArrow=none;endArrow=block;endSize=12;strokeColor=#3574f0;exitX=0.125;exitY=0.002;exitDx=0;exitDy=0;entryX=0.875;entryY=1.001;entryDx=0;entryDy=0;">
      <mxGeometry width="50" height="50" relative="1" as="geometry">
        <Array as="points">
          <mxPoint x="585" y="460" />
          <mxPoint x="541" y="460" />
        </Array>
      </mxGeometry>
    </mxCell>
    <mxCell id="edge1" edge="1" value="" parent="1" source="node18" target="node18" style="html=1;rounded=1;edgeStyle=orthogonalEdgeStyle;dashed=1;dashPattern=1 1;startArrow=none;endArrow=block;endSize=12;strokeColor=#5fad65;exitX=0.000;exitY=0.750;exitDx=0;exitDy=0;entryX=0.250;entryY=1.002;entryDx=0;entryDy=0;">
      <mxGeometry width="50" height="50" relative="1" as="geometry">
        <Array as="points">
          <mxPoint x="-140" y="786" />
          <mxPoint x="-140" y="840" />
          <mxPoint x="-69" y="840" />
        </Array>
      </mxGeometry>
    </mxCell>
    <mxCell id="edge44" edge="1" value="" parent="1" source="node18" target="node18" style="html=1;rounded=1;edgeStyle=orthogonalEdgeStyle;dashed=0;startArrow=none;endArrow=block;endSize=12;strokeColor=#955ae0;exitX=0.000;exitY=0.250;exitDx=0;exitDy=0;entryX=0.750;entryY=1.001;entryDx=0;entryDy=0;">
      <mxGeometry width="50" height="50" relative="1" as="geometry">
        <Array as="points">
          <mxPoint x="-160" y="774" />
          <mxPoint x="-160" y="860" />
          <mxPoint x="-11" y="860" />
        </Array>
      </mxGeometry>
    </mxCell>
    <mxCell id="edge28" edge="1" value="" parent="1" source="node19" target="node17" style="html=1;rounded=1;edgeStyle=orthogonalEdgeStyle;dashed=0;startArrow=none;endArrow=block;endSize=12;strokeColor=#3574f0;exitX=0.417;exitY=0.002;exitDx=0;exitDy=0;entryX=0.167;entryY=1.001;entryDx=0;entryDy=0;">
      <mxGeometry width="50" height="50" relative="1" as="geometry">
        <Array as="points">
          <mxPoint x="314" y="800" />
          <mxPoint x="320" y="800" />
          <mxPoint x="320" y="760" />
          <mxPoint x="317" y="760" />
        </Array>
      </mxGeometry>
    </mxCell>
    <mxCell id="edge42" edge="1" value="" parent="1" source="node19" target="node6" style="html=1;rounded=1;edgeStyle=orthogonalEdgeStyle;dashed=0;startArrow=none;endArrow=block;endSize=12;strokeColor=#3574f0;exitX=0.917;exitY=0.001;exitDx=0;exitDy=0;entryX=0.500;entryY=1.001;entryDx=0;entryDy=0;">
      <mxGeometry width="50" height="50" relative="1" as="geometry">
        <Array as="points">
          <mxPoint x="353" y="860" />
          <mxPoint x="660" y="860" />
        </Array>
      </mxGeometry>
    </mxCell>
    <mxCell id="edge41" edge="1" value="" parent="1" source="node19" target="node5" style="html=1;rounded=1;edgeStyle=orthogonalEdgeStyle;dashed=0;startArrow=none;endArrow=block;endSize=12;strokeColor=#3574f0;exitX=0.083;exitY=0.001;exitDx=0;exitDy=0;entryX=0.071;entryY=1.002;entryDx=0;entryDy=0;">
      <mxGeometry width="50" height="50" relative="1" as="geometry">
        <Array as="points">
          <mxPoint x="288" y="860" />
          <mxPoint x="40" y="860" />
          <mxPoint x="40" y="180" />
          <mxPoint x="144" y="180" />
        </Array>
      </mxGeometry>
    </mxCell>
    <mxCell id="edge14" edge="1" value="" parent="1" source="node19" target="node14" style="html=1;rounded=1;edgeStyle=orthogonalEdgeStyle;dashed=0;startArrow=none;endArrow=block;endSize=12;strokeColor=#3574f0;exitX=0.250;exitY=0.002;exitDx=0;exitDy=0;entryX=0.250;entryY=1.001;entryDx=0;entryDy=0;">
      <mxGeometry width="50" height="50" relative="1" as="geometry">
        <Array as="points">
          <mxPoint x="301" y="840" />
          <mxPoint x="120" y="840" />
          <mxPoint x="120" y="500" />
          <mxPoint x="81" y="500" />
        </Array>
      </mxGeometry>
    </mxCell>
    <mxCell id="edge18" edge="1" value="" parent="1" source="node19" target="node0" style="html=1;rounded=1;edgeStyle=orthogonalEdgeStyle;dashed=0;startArrow=none;endArrow=block;endSize=12;strokeColor=#3574f0;exitX=0.750;exitY=0.002;exitDx=0;exitDy=0;entryX=0.375;entryY=1.001;entryDx=0;entryDy=0;">
      <mxGeometry width="50" height="50" relative="1" as="geometry">
        <Array as="points">
          <mxPoint x="340" y="840" />
          <mxPoint x="360" y="840" />
          <mxPoint x="360" y="760" />
          <mxPoint x="520" y="760" />
          <mxPoint x="520" y="500" />
          <mxPoint x="513" y="500" />
        </Array>
      </mxGeometry>
    </mxCell>
    <mxCell id="edge20" edge="1" value="" parent="1" source="node7" target="node5" style="html=1;rounded=1;edgeStyle=orthogonalEdgeStyle;dashed=0;startArrow=none;endArrow=block;endSize=12;strokeColor=#3574f0;exitX=0.100;exitY=0.001;exitDx=0;exitDy=0;entryX=0.929;entryY=1.001;entryDx=0;entryDy=0;">
      <mxGeometry width="50" height="50" relative="1" as="geometry">
        <Array as="points">
          <mxPoint x="440" y="160" />
          <mxPoint x="216" y="160" />
        </Array>
      </mxGeometry>
    </mxCell>
    <mxCell id="edge10" edge="1" value="" parent="1" source="node7" target="node19" style="html=1;rounded=1;edgeStyle=orthogonalEdgeStyle;dashed=0;startArrow=none;endArrow=block;endSize=12;strokeColor=#3574f0;exitX=0.500;exitY=1.001;exitDx=0;exitDy=0;entryX=0.583;entryY=0.001;entryDx=0;entryDy=0;">
      <mxGeometry width="50" height="50" relative="1" as="geometry">
        <Array as="points">
          <mxPoint x="460" y="720" />
          <mxPoint x="340" y="720" />
          <mxPoint x="340" y="820" />
          <mxPoint x="327" y="820" />
        </Array>
      </mxGeometry>
    </mxCell>
    <mxCell id="edge11" edge="1" value="" parent="1" source="node7" target="node10" style="html=1;rounded=1;edgeStyle=orthogonalEdgeStyle;dashed=0;startArrow=none;endArrow=block;endSize=12;strokeColor=#3574f0;exitX=0.500;exitY=0.001;exitDx=0;exitDy=0;entryX=0.125;entryY=1.001;entryDx=0;entryDy=0;">
      <mxGeometry width="50" height="50" relative="1" as="geometry">
        <Array as="points">
          <mxPoint x="460" y="120" />
          <mxPoint x="470" y="120" />
        </Array>
      </mxGeometry>
    </mxCell>
    <mxCell id="edge43" edge="1" value="" parent="1" source="node7" target="node10" style="html=1;rounded=1;edgeStyle=orthogonalEdgeStyle;dashed=0;startArrow=none;endArrow=block;endSize=12;strokeColor=#955ae0;exitX=0.700;exitY=0.002;exitDx=0;exitDy=0;entryX=0.375;entryY=1.002;entryDx=0;entryDy=0;">
      <mxGeometry width="50" height="50" relative="1" as="geometry">
        <Array as="points">
          <mxPoint x="470" y="140" />
          <mxPoint x="490" y="140" />
        </Array>
      </mxGeometry>
    </mxCell>
    <mxCell id="edge16" edge="1" value="" parent="1" source="node7" target="node1" style="html=1;rounded=1;edgeStyle=orthogonalEdgeStyle;dashed=0;startArrow=none;endArrow=block;endSize=12;strokeColor=#3574f0;exitX=0.300;exitY=0.002;exitDx=0;exitDy=0;entryX=0.167;entryY=1.001;entryDx=0;entryDy=0;">
      <mxGeometry width="50" height="50" relative="1" as="geometry">
        <Array as="points">
          <mxPoint x="450" y="140" />
          <mxPoint x="440" y="140" />
          <mxPoint x="440" y="40" />
          <mxPoint x="482" y="40" />
        </Array>
      </mxGeometry>
    </mxCell>
    <mxCell id="edge33" edge="1" value="" parent="1" source="node7" target="node3" style="html=1;rounded=1;edgeStyle=orthogonalEdgeStyle;dashed=0;startArrow=none;endArrow=block;endSize=12;strokeColor=#3574f0;exitX=0.900;exitY=0.001;exitDx=0;exitDy=0;entryX=0.083;entryY=1.001;entryDx=0;entryDy=0;">
      <mxGeometry width="50" height="50" relative="1" as="geometry">
        <Array as="points">
          <mxPoint x="480" y="160" />
          <mxPoint x="629" y="160" />
        </Array>
      </mxGeometry>
    </mxCell>
    <mxCell id="edge27" edge="1" value="" parent="1" source="node10" target="node1" style="html=1;rounded=1;edgeStyle=orthogonalEdgeStyle;dashed=0;startArrow=none;endArrow=block;endSize=12;strokeColor=#3574f0;exitX=0.500;exitY=0.001;exitDx=0;exitDy=0;entryX=0.500;entryY=1.001;entryDx=0;entryDy=0;">
      <mxGeometry width="50" height="50" relative="1" as="geometry">
        <Array as="points" />
      </mxGeometry>
    </mxCell>
    <mxCell id="edge22" edge="1" value="" parent="1" source="node14" target="node5" style="html=1;rounded=1;edgeStyle=orthogonalEdgeStyle;dashed=0;startArrow=none;endArrow=block;endSize=12;strokeColor=#3574f0;exitX=0.500;exitY=0.002;exitDx=0;exitDy=0;entryX=0.214;entryY=1.001;entryDx=0;entryDy=0;">
      <mxGeometry width="50" height="50" relative="1" as="geometry">
        <Array as="points">
          <mxPoint x="100" y="200" />
          <mxPoint x="156" y="200" />
        </Array>
      </mxGeometry>
    </mxCell>
    <mxCell id="edge0" edge="1" value="" parent="1" source="node16" target="node9" style="html=1;rounded=1;edgeStyle=orthogonalEdgeStyle;dashed=1;dashPattern=1 1;startArrow=none;endArrow=block;endSize=12;strokeColor=#5fad65;exitX=0.250;exitY=0.001;exitDx=0;exitDy=0;entryX=0.500;entryY=1.002;entryDx=0;entryDy=0;">
      <mxGeometry width="50" height="50" relative="1" as="geometry">
        <Array as="points">
          <mxPoint x="837" y="480" />
          <mxPoint x="840" y="480" />
        </Array>
      </mxGeometry>
    </mxCell>
    <mxCell id="edge26" edge="1" value="" parent="1" source="node16" target="node9" style="html=1;rounded=1;edgeStyle=orthogonalEdgeStyle;dashed=0;startArrow=none;endArrow=block;endSize=12;strokeColor=#3574f0;exitX=0.750;exitY=0.001;exitDx=0;exitDy=0;entryX=0.833;entryY=1.002;entryDx=0;entryDy=0;">
      <mxGeometry width="50" height="50" relative="1" as="geometry">
        <Array as="points">
          <mxPoint x="883" y="480" />
          <mxPoint x="876" y="480" />
        </Array>
      </mxGeometry>
    </mxCell>
    <mxCell id="edge31" edge="1" value="" parent="1" source="node0" target="node5" style="html=1;rounded=1;edgeStyle=orthogonalEdgeStyle;dashed=0;startArrow=none;endArrow=block;endSize=12;strokeColor=#3574f0;exitX=0.125;exitY=0.001;exitDx=0;exitDy=0;entryX=0.643;entryY=1.001;entryDx=0;entryDy=0;">
      <mxGeometry width="50" height="50" relative="1" as="geometry">
        <Array as="points">
          <mxPoint x="499" y="340" />
          <mxPoint x="380" y="340" />
          <mxPoint x="380" y="200" />
          <mxPoint x="192" y="200" />
        </Array>
      </mxGeometry>
    </mxCell>
    <mxCell id="edge35" edge="1" value="" parent="1" source="node0" target="node7" style="html=1;rounded=1;edgeStyle=orthogonalEdgeStyle;dashed=0;startArrow=none;endArrow=block;endSize=12;strokeColor=#3574f0;exitX=0.375;exitY=0.002;exitDx=0;exitDy=0;entryX=0.833;entryY=1.001;entryDx=0;entryDy=0;">
      <mxGeometry width="50" height="50" relative="1" as="geometry">
        <Array as="points">
          <mxPoint x="513" y="320" />
          <mxPoint x="477" y="320" />
        </Array>
      </mxGeometry>
    </mxCell>
    <mxCell id="edge32" edge="1" value="" parent="1" source="node0" target="node10" style="html=1;rounded=1;edgeStyle=orthogonalEdgeStyle;dashed=0;startArrow=none;endArrow=block;endSize=12;strokeColor=#3574f0;exitX=0.625;exitY=0.002;exitDx=0;exitDy=0;entryX=0.625;entryY=1.001;entryDx=0;entryDy=0;">
      <mxGeometry width="50" height="50" relative="1" as="geometry">
        <Array as="points">
          <mxPoint x="527" y="280" />
          <mxPoint x="520" y="280" />
          <mxPoint x="520" y="200" />
          <mxPoint x="510" y="200" />
        </Array>
      </mxGeometry>
    </mxCell>
    <mxCell id="edge37" edge="1" value="" parent="1" source="node0" target="node3" style="html=1;rounded=1;edgeStyle=orthogonalEdgeStyle;dashed=0;startArrow=none;endArrow=block;endSize=12;strokeColor=#3574f0;exitX=0.875;exitY=0.001;exitDx=0;exitDy=0;entryX=0.250;entryY=1.001;entryDx=0;entryDy=0;">
      <mxGeometry width="50" height="50" relative="1" as="geometry">
        <Array as="points">
          <mxPoint x="541" y="260" />
          <mxPoint x="620" y="260" />
          <mxPoint x="620" y="220" />
          <mxPoint x="649" y="220" />
        </Array>
      </mxGeometry>
    </mxCell>
  </root>
</mxGraphModel>